<svg width="337" height="20" viewBox="0 0 337 20" fill="none" xmlns="http://www.w3.org/2000/svg">
<g opacity="0.4">
<path d="M27.6912 8.76271L6.64528 8.76271L11.269 4.13899C11.9068 3.50123 11.9068 2.5446 11.269 1.90684C10.6313 1.26909 9.67462 1.26909 9.03687 1.90684L1.70268 9.24103C1.06493 9.87878 1.06493 10.8354 1.70268 11.4732L9.03687 18.8074C9.67462 19.4451 10.6313 19.4451 11.269 18.8074C11.9068 18.1696 11.9068 17.213 11.269 16.5752L6.64528 11.9515L27.6912 11.9515C28.4884 11.9515 29.2856 11.3137 29.2856 10.3571C29.2856 9.40047 28.4884 8.76271 27.6912 8.76271Z" fill="#458FF6"/>
</g>
<path d="M308.737 11.2373L329.783 11.2373L325.16 15.861C324.522 16.4988 324.522 17.4554 325.16 18.0932C325.797 18.7309 326.754 18.7309 327.392 18.0932L334.726 10.759C335.364 10.1212 335.364 9.16458 334.726 8.52683L327.392 1.19264C326.754 0.554889 325.797 0.554889 325.16 1.19264C324.522 1.8304 324.522 2.78703 325.16 3.42479L329.783 8.04851L308.737 8.04851C307.94 8.04851 307.143 8.68627 307.143 9.6429C307.143 10.5995 307.94 11.2373 308.737 11.2373Z" fill="#458FF6"/>
<path opacity="0.3" d="M159 10C159 12.7614 156.761 15 154 15C151.239 15 149 12.7614 149 10C149 7.23858 151.239 5 154 5C156.761 5 159 7.23858 159 10Z" fill="#5B9BF3"/>
<path opacity="0.3" d="M187 10C187 12.7614 184.761 15 182 15C179.239 15 177 12.7614 177 10C177 7.23858 179.239 5 182 5C184.761 5 187 7.23858 187 10Z" fill="#5B9BF3"/>
<path opacity="0.3" d="M215 10C215 12.7614 212.761 15 210 15C207.239 15 205 12.7614 205 10C205 7.23858 207.239 5 210 5C212.761 5 215 7.23858 215 10Z" fill="#5B9BF3"/>
<path d="M131 10C131 12.7614 128.761 15 126 15C123.239 15 121 12.7614 121 10C121 7.23858 123.239 5 126 5C128.761 5 131 7.23858 131 10Z" fill="#5B9BF3"/>
</svg>
